<svg role="img" viewBox="0 0 24 24" xmlns="http://www.w3.org/2000/svg" fill="#1DB954">
  <title>Spotify</title>
  <path d="M12 0C5.4 0 0 5.4 0 12s5.4 12 12 12 12-5.4 12-12S18.6 0 12 0zm5.5 17.3c-.2.3-.7.4-1 .2-2.8-1.7-6.3-2.1-10.5-1.2-.4.1-.8-.2-.9-.6-.1-.4.2-.8.6-.9 4.6-1 8.5-.6 11.6 1.3.3.2.4.7.2 1.2zm1.4-3.2c-.2.3-.7.5-1 .3-3.2-2-8.1-2.6-11.9-1.4-.4.1-.9-.1-1-.6-.1-.4.1-.9.6-1 4.3-1.3 9.6-.7 13.2 1.6.4.2.5.7.1 1.1zm.1-3.3c-3.9-2.3-10.3-2.5-14-.9-.5.2-1.1-.1-1.3-.6-.2-.5.1-1.1.6-1.3 4.3-1.9 11.4-1.7 15.9 1.1.5.3.7 1 .3 1.5-.3.4-1 .5-1.5.2z"/>
</svg>


